# Generated by Wraith - Game extraction tools
# Please credit DTZxPorter for using it!

v 0.804847 -0.729244 4.065950
v -2.797142 -0.645206 4.110560
v 0.797537 0.586849 4.056136
v -2.797142 -0.645206 4.110560
v -2.785730 0.502757 4.100520
v 0.797537 0.586849 4.056136
v 7.420295 -1.185294 -13.292789
v 7.406968 1.042556 -13.289429
v 4.202824 -1.043724 -15.344868
v 4.202824 -1.043724 -15.344868
v 7.406968 1.042556 -13.289429
v 4.206316 0.900986 -15.330779
v 4.206316 0.900986 -15.330779
v 7.406968 1.042556 -13.289429
v 1.484361 0.900986 -10.541489
v 7.406968 1.042556 -13.289429
v 4.723877 1.042556 -8.484731
v 1.484361 0.900986 -10.541489
v 1.484361 0.900986 -10.541489
v 4.723877 1.042556 -8.484731
v -0.552796 0.900986 -5.288968
v 4.723877 1.042556 -8.484731
v 2.934891 1.042556 -3.703199
v -0.552796 0.900986 -5.288968
v -0.552796 0.900986 -5.288968
v 2.934891 1.042556 -3.703199
v -2.188142 0.900986 0.233621
v 2.934891 1.042556 -3.703199
v 1.610767 1.042556 0.936897
v -2.188142 0.900986 0.233621
v 1.610767 1.042556 0.936897
v 1.141735 1.042556 3.286651
v -2.188142 0.900986 0.233621
v -2.188142 0.900986 0.233621
v 1.141735 1.042556 3.286651
v -2.863045 0.900986 3.331248
v 1.141735 1.042556 3.286651
v 0.797537 0.586849 4.056136
v -2.863045 0.900986 3.331248
v -2.785730 0.502757 4.100520
v -2.863045 0.900986 3.331248
v 0.797537 0.586849 4.056136
v 4.202824 -1.043724 -15.344868
v 1.475199 -1.043724 -10.547302
v 7.420295 -1.185294 -13.292789
v 7.420295 -1.185294 -13.292789
v 1.475199 -1.043724 -10.547302
v 4.731769 -1.185294 -8.479721
v 1.475199 -1.043724 -10.547302
v -0.562219 -1.043724 -5.293253
v 4.731769 -1.185294 -8.479721
v 4.731769 -1.185294 -8.479721
v -0.562219 -1.043724 -5.293253
v 2.943739 -1.185294 -3.699178
v -0.562219 -1.043724 -5.293253
v -2.198212 -1.043724 0.231335
v 2.943739 -1.185294 -3.699178
v 2.943739 -1.185294 -3.699178
v -2.198212 -1.043724 0.231335
v 1.620057 -1.185294 0.939008
v 1.620057 -1.185294 0.939008
v -2.198212 -1.043724 0.231335
v 1.149982 -1.185294 3.296562
v -2.198212 -1.043724 0.231335
v -2.875928 -1.043724 3.341385
v 1.149982 -1.185294 3.296562
v 1.149982 -1.185294 3.296562
v -2.875928 -1.043724 3.341385
v 0.804847 -0.729244 4.065950
v -2.875928 -1.043724 3.341385
v -2.797142 -0.645206 4.110560
v 0.804847 -0.729244 4.065950
v 7.406968 1.042556 -13.289429
v 7.420295 -1.185294 -13.292789
v 4.723877 1.042556 -8.484731
v 7.420295 -1.185294 -13.292789
v 4.731769 -1.185294 -8.479721
v 4.723877 1.042556 -8.484731
v 4.723877 1.042556 -8.484731
v 4.731769 -1.185294 -8.479721
v 2.934891 1.042556 -3.703199
v 4.731769 -1.185294 -8.479721
v 2.943739 -1.185294 -3.699178
v 2.934891 1.042556 -3.703199
v 2.934891 1.042556 -3.703199
v 2.943739 -1.185294 -3.699178
v 1.610767 1.042556 0.936897
v 2.943739 -1.185294 -3.699178
v 1.620057 -1.185294 0.939008
v 1.610767 1.042556 0.936897
v 1.610767 1.042556 0.936897
v 1.620057 -1.185294 0.939008
v 1.141735 1.042556 3.286651
v 1.620057 -1.185294 0.939008
v 1.149982 -1.185294 3.296562
v 1.141735 1.042556 3.286651
v 1.149982 -1.185294 3.296562
v 0.804847 -0.729244 4.065950
v 1.141735 1.042556 3.286651
v 1.141735 1.042556 3.286651
v 0.804847 -0.729244 4.065950
v 0.797537 0.586849 4.056136
v 4.202824 -1.043724 -15.344868
v 4.206316 0.900986 -15.330779
v 1.475199 -1.043724 -10.547302
v 4.206316 0.900986 -15.330779
v 1.484361 0.900986 -10.541489
v 1.475199 -1.043724 -10.547302
v 1.475199 -1.043724 -10.547302
v 1.484361 0.900986 -10.541489
v -0.562219 -1.043724 -5.293253
v 1.484361 0.900986 -10.541489
v -0.552796 0.900986 -5.288968
v -0.562219 -1.043724 -5.293253
v -0.562219 -1.043724 -5.293253
v -0.552796 0.900986 -5.288968
v -2.198212 -1.043724 0.231335
v -0.552796 0.900986 -5.288968
v -2.188142 0.900986 0.233621
v -2.198212 -1.043724 0.231335
v -2.198212 -1.043724 0.231335
v -2.188142 0.900986 0.233621
v -2.875928 -1.043724 3.341385
v -2.188142 0.900986 0.233621
v -2.863045 0.900986 3.331248
v -2.875928 -1.043724 3.341385
v -2.863045 0.900986 3.331248
v -2.785730 0.502757 4.100520
v -2.875928 -1.043724 3.341385
v -2.875928 -1.043724 3.341385
v -2.785730 0.502757 4.100520
v -2.797142 -0.645206 4.110560
vt 0.629395 0.746826
vt 0.556641 0.745605
vt 0.629395 0.725586
vt 0.556641 0.745605
vt 0.556641 0.727051
vt 0.629395 0.725586
vt 0.572754 0.793213
vt 0.573242 0.755493
vt 0.627441 0.790894
vt 0.627441 0.790894
vt 0.573242 0.755493
vt 0.627441 0.757812
vt 0.493896 0.642578
vt 0.437012 0.678955
vt 0.544922 0.729492
vt 0.437012 0.678955
vt 0.486084 0.766846
vt 0.544922 0.729492
vt 0.544922 0.729492
vt 0.486084 0.766846
vt 0.580078 0.827148
vt 0.486084 0.766846
vt 0.518555 0.854492
vt 0.580078 0.827148
vt 0.580078 0.827148
vt 0.518555 0.854492
vt 0.612305 0.926514
vt 0.518555 0.854492
vt 0.542969 0.939362
vt 0.612305 0.926514
vt 0.542969 0.939362
vt 0.551270 0.982376
vt 0.612305 0.926514
vt 0.612305 0.926514
vt 0.551270 0.982376
vt 0.628418 0.983200
vt 0.551270 0.982376
vt 0.555664 0.996468
vt 0.628418 0.983200
vt 0.624023 0.997278
vt 0.628418 0.983200
vt 0.555664 0.996468
vt 0.494141 0.642334
vt 0.544922 0.729492
vt 0.436768 0.678955
vt 0.436768 0.678955
vt 0.544922 0.729492
vt 0.485840 0.766968
vt 0.544922 0.729492
vt 0.580078 0.827026
vt 0.485840 0.766968
vt 0.485840 0.766968
vt 0.580078 0.827026
vt 0.518555 0.854492
vt 0.580078 0.827026
vt 0.612793 0.926453
vt 0.518555 0.854492
vt 0.518555 0.854492
vt 0.612793 0.926453
vt 0.542969 0.939392
vt 0.542969 0.939392
vt 0.612793 0.926453
vt 0.551270 0.982559
vt 0.612793 0.926453
vt 0.628418 0.983383
vt 0.551270 0.982559
vt 0.551270 0.982559
vt 0.628418 0.983383
vt 0.555664 0.996647
vt 0.628418 0.983383
vt 0.624512 0.997463
vt 0.555664 0.996647
vt 0.670410 0.710938
vt 0.633789 0.710693
vt 0.670410 0.790039
vt 0.633789 0.710693
vt 0.633789 0.790039
vt 0.670410 0.790039
vt 0.670410 0.790039
vt 0.633789 0.790039
vt 0.670410 0.868896
vt 0.633789 0.790039
vt 0.633789 0.868896
vt 0.670410 0.868896
vt 0.670410 0.868896
vt 0.633789 0.868896
vt 0.670410 0.945312
vt 0.633789 0.868896
vt 0.633789 0.945374
vt 0.670410 0.945312
vt 0.670410 0.945312
vt 0.633789 0.945374
vt 0.670410 0.984070
vt 0.633789 0.945374
vt 0.633789 0.984238
vt 0.670410 0.984070
vt 0.633789 0.984238
vt 0.642578 0.996912
vt 0.670410 0.984070
vt 0.670410 0.984070
vt 0.642578 0.996912
vt 0.661621 0.996750
vt 0.633789 0.716309
vt 0.670898 0.716553
vt 0.633789 0.784912
vt 0.670898 0.716553
vt 0.670898 0.785034
vt 0.633789 0.784912
vt 0.633789 0.784912
vt 0.670898 0.785034
vt 0.633789 0.860107
vt 0.670898 0.785034
vt 0.670898 0.860229
vt 0.633789 0.860107
vt 0.633789 0.860107
vt 0.670898 0.860229
vt 0.633789 0.939178
vt 0.670898 0.860229
vt 0.670898 0.939209
vt 0.633789 0.939178
vt 0.633789 0.939178
vt 0.670898 0.939209
vt 0.633789 0.983673
vt 0.670898 0.939209
vt 0.670898 0.983536
vt 0.633789 0.983673
vt 0.670898 0.983536
vt 0.661621 0.994537
vt 0.633789 0.983673
vt 0.633789 0.983673
vt 0.661621 0.994537
vt 0.642578 0.994682
vn 0.015748 0.007874 1.000000
vn 0.015748 0.007874 1.000000
vn 0.015748 0.007874 1.000000
vn 0.015748 0.007874 1.000000
vn 0.015748 0.007874 1.000000
vn 0.015748 0.007874 1.000000
vn 0.535433 0.007874 -0.842520
vn 0.535433 0.007874 -0.842520
vn 0.535433 0.007874 -0.842520
vn 0.535433 0.007874 -0.842520
vn 0.535433 0.007874 -0.842520
vn 0.535433 0.007874 -0.842520
vn -0.031496 1.000000 -0.015748
vn -0.031496 1.000000 -0.015748
vn -0.031496 1.000000 -0.015748
vn -0.031496 1.000000 -0.015748
vn -0.031496 1.000000 -0.015748
vn -0.031496 1.000000 -0.015748
vn -0.031496 1.000000 -0.015748
vn -0.031496 1.000000 -0.015748
vn -0.031496 1.000000 -0.015748
vn -0.031496 1.000000 -0.015748
vn -0.031496 1.000000 -0.015748
vn -0.031496 1.000000 -0.015748
vn -0.031496 1.000000 -0.015748
vn -0.031496 1.000000 -0.015748
vn -0.039370 1.000000 -0.007874
vn -0.031496 1.000000 -0.015748
vn -0.039370 1.000000 -0.007874
vn -0.039370 1.000000 -0.007874
vn -0.039370 1.000000 -0.007874
vn -0.031496 0.968504 0.244094
vn -0.039370 1.000000 -0.007874
vn -0.039370 1.000000 -0.007874
vn -0.031496 0.968504 0.244094
vn -0.031496 0.968504 0.244094
vn -0.031496 0.968504 0.244094
vn -0.023622 0.874016 0.480315
vn -0.031496 0.968504 0.244094
vn -0.023622 0.874016 0.480315
vn -0.031496 0.968504 0.244094
vn -0.023622 0.874016 0.480315
vn -0.031496 -1.000000 -0.015748
vn -0.031496 -1.000000 -0.015748
vn -0.031496 -1.000000 -0.015748
vn -0.031496 -1.000000 -0.015748
vn -0.031496 -1.000000 -0.015748
vn -0.031496 -1.000000 -0.015748
vn -0.031496 -1.000000 -0.015748
vn -0.031496 -1.000000 -0.007874
vn -0.031496 -1.000000 -0.015748
vn -0.031496 -1.000000 -0.015748
vn -0.031496 -1.000000 -0.007874
vn -0.031496 -1.000000 -0.007874
vn -0.031496 -1.000000 -0.007874
vn -0.031496 -1.000000 -0.007874
vn -0.031496 -1.000000 -0.007874
vn -0.031496 -1.000000 -0.007874
vn -0.031496 -1.000000 -0.007874
vn -0.031496 -1.000000 -0.007874
vn -0.031496 -1.000000 -0.007874
vn -0.031496 -1.000000 -0.007874
vn -0.031496 -0.968504 0.244094
vn -0.031496 -1.000000 -0.007874
vn -0.031496 -0.968504 0.244094
vn -0.031496 -0.968504 0.244094
vn -0.031496 -0.968504 0.244094
vn -0.031496 -0.968504 0.244094
vn -0.023622 -0.874016 0.480315
vn -0.031496 -0.968504 0.244094
vn -0.023622 -0.874016 0.480315
vn -0.023622 -0.874016 0.480315
vn 0.874016 0.007874 0.488189
vn 0.874016 0.007874 0.488189
vn 0.905512 0.007874 0.417323
vn 0.874016 0.007874 0.488189
vn 0.905512 0.007874 0.417323
vn 0.905512 0.007874 0.417323
vn 0.905512 0.007874 0.417323
vn 0.905512 0.007874 0.417323
vn 0.952756 0.007874 0.314961
vn 0.905512 0.007874 0.417323
vn 0.952756 0.007874 0.314961
vn 0.952756 0.007874 0.314961
vn 0.952756 0.007874 0.314961
vn 0.952756 0.007874 0.314961
vn 0.968504 0.007874 0.236220
vn 0.952756 0.007874 0.314961
vn 0.968504 0.007874 0.236220
vn 0.968504 0.007874 0.236220
vn 0.968504 0.007874 0.236220
vn 0.968504 0.007874 0.236220
vn 0.952756 0.007874 0.307087
vn 0.968504 0.007874 0.236220
vn 0.952756 0.007874 0.307087
vn 0.952756 0.007874 0.307087
vn 0.952756 0.007874 0.307087
vn 0.913386 0.007874 0.409449
vn 0.952756 0.007874 0.307087
vn 0.952756 0.007874 0.307087
vn 0.913386 0.007874 0.409449
vn 0.913386 0.007874 0.409449
vn -0.866142 0.007874 -0.496063
vn -0.866142 0.007874 -0.496063
vn -0.905512 0.007874 -0.425197
vn -0.866142 0.007874 -0.496063
vn -0.905512 0.007874 -0.425197
vn -0.905512 0.007874 -0.425197
vn -0.905512 0.007874 -0.425197
vn -0.905512 0.007874 -0.425197
vn -0.944882 0.007874 -0.322835
vn -0.905512 0.007874 -0.425197
vn -0.944882 0.007874 -0.322835
vn -0.944882 0.007874 -0.322835
vn -0.944882 0.007874 -0.322835
vn -0.944882 0.007874 -0.322835
vn -0.968504 0.007874 -0.251969
vn -0.944882 0.007874 -0.322835
vn -0.968504 0.007874 -0.251969
vn -0.968504 0.007874 -0.251969
vn -0.968504 0.007874 -0.251969
vn -0.968504 0.007874 -0.251969
vn -1.000000 0.007874 -0.055118
vn -0.968504 0.007874 -0.251969
vn -1.000000 0.007874 -0.055118
vn -1.000000 0.007874 -0.055118
vn -1.000000 0.007874 -0.055118
vn -0.992126 0.007874 0.102362
vn -1.000000 0.007874 -0.055118
vn -1.000000 0.007874 -0.055118
vn -0.992126 0.007874 0.102362
vn -0.992126 0.007874 0.102362
mtllib mtl_weapon_mp5.mtl
g mtl_weapon_mp5
usemtl mtl_weapon_mp5
f 3/3/3 2/2/2 1/1/1
f 6/6/6 5/5/5 4/4/4
f 9/9/9 8/8/8 7/7/7
f 12/12/12 11/11/11 10/10/10
f 15/15/15 14/14/14 13/13/13
f 18/18/18 17/17/17 16/16/16
f 21/21/21 20/20/20 19/19/19
f 24/24/24 23/23/23 22/22/22
f 27/27/27 26/26/26 25/25/25
f 30/30/30 29/29/29 28/28/28
f 33/33/33 32/32/32 31/31/31
f 36/36/36 35/35/35 34/34/34
f 39/39/39 38/38/38 37/37/37
f 42/42/42 41/41/41 40/40/40
f 45/45/45 44/44/44 43/43/43
f 48/48/48 47/47/47 46/46/46
f 51/51/51 50/50/50 49/49/49
f 54/54/54 53/53/53 52/52/52
f 57/57/57 56/56/56 55/55/55
f 60/60/60 59/59/59 58/58/58
f 63/63/63 62/62/62 61/61/61
f 66/66/66 65/65/65 64/64/64
f 69/69/69 68/68/68 67/67/67
f 72/72/72 71/71/71 70/70/70
f 75/75/75 74/74/74 73/73/73
f 78/78/78 77/77/77 76/76/76
f 81/81/81 80/80/80 79/79/79
f 84/84/84 83/83/83 82/82/82
f 87/87/87 86/86/86 85/85/85
f 90/90/90 89/89/89 88/88/88
f 93/93/93 92/92/92 91/91/91
f 96/96/96 95/95/95 94/94/94
f 99/99/99 98/98/98 97/97/97
f 102/102/102 101/101/101 100/100/100
f 105/105/105 104/104/104 103/103/103
f 108/108/108 107/107/107 106/106/106
f 111/111/111 110/110/110 109/109/109
f 114/114/114 113/113/113 112/112/112
f 117/117/117 116/116/116 115/115/115
f 120/120/120 119/119/119 118/118/118
f 123/123/123 122/122/122 121/121/121
f 126/126/126 125/125/125 124/124/124
f 129/129/129 128/128/128 127/127/127
f 132/132/132 131/131/131 130/130/130
