# Generated by Wraith - Game extraction tools
# Please credit DTZxPorter for using it!

v -48.361984 -1.270000 0.000000
v -50.901985 0.000000 0.000000
v -48.361984 1.270000 0.000000
v -48.361984 1.270000 0.000000
v -48.361984 1.270000 0.000000
v -48.361984 1.270000 0.000000
vt 0.000000 0.000000
vt 1.000000 1.000000
vt 1.000000 0.000000
vt 1.000000 0.000000
vt 1.000000 0.000000
vt 1.000000 0.000000
vn 0.000000 0.000000 1.000000
vn 0.000000 0.000000 1.000000
vn 0.000000 0.000000 1.000000
vn 0.000000 0.000000 1.000000
vn 0.000000 0.000000 1.000000
vn 0.000000 0.000000 1.000000
mtllib lambert1.mtl
g lambert1
usemtl lambert1
f 3/3/3 2/2/2 1/1/1
f 6/6/6 5/5/5 4/4/4
