# Generated by Wraith - Game extraction tools
# Please credit DTZxPorter for using it!

v -3.652896 -1.022916 3.292074
v -3.642553 1.080595 3.285389
v 2.876868 -1.022916 3.349859
v 2.876868 -1.022916 3.349859
v -3.642553 1.080595 3.285389
v 2.868503 1.080595 3.343008
v 6.328745 -1.341239 -10.141459
v 6.314908 1.392258 -10.135082
v -0.788096 -1.341239 -13.030473
v -0.788096 -1.341239 -13.030473
v 6.314908 1.392258 -10.135082
v -0.781225 1.392258 -13.015689
v 6.165901 -1.351415 -9.543250
v -0.969277 -1.351415 -12.439704
v 6.151959 1.402433 -9.536826
v 6.151959 1.402433 -9.536826
v -0.969277 -1.351415 -12.439704
v -0.962355 1.402433 -12.424812
v 6.165901 -1.351415 -9.543250
v 6.328745 -1.341239 -10.141459
v -0.969277 -1.351415 -12.439704
v -0.969277 -1.351415 -12.439704
v 6.328745 -1.341239 -10.141459
v -0.788096 -1.341239 -13.030473
v -0.969277 -1.351415 -12.439704
v -0.788096 -1.341239 -13.030473
v -0.962355 1.402433 -12.424812
v -0.962355 1.402433 -12.424812
v -0.788096 -1.341239 -13.030473
v -0.781225 1.392258 -13.015689
v 6.151959 1.402433 -9.536826
v -0.962355 1.402433 -12.424812
v 6.314908 1.392258 -10.135082
v -0.781225 1.392258 -13.015689
v 6.314908 1.392258 -10.135082
v -0.962355 1.402433 -12.424812
v 6.151959 1.402433 -9.536826
v 6.314908 1.392258 -10.135082
v 6.165901 -1.351415 -9.543250
v 6.165901 -1.351415 -9.543250
v 6.314908 1.392258 -10.135082
v 6.328745 -1.341239 -10.141459
v 2.868503 1.080595 3.343008
v -3.642553 1.080595 3.285389
v 3.953106 1.169675 -3.886868
v -3.642553 1.080595 3.285389
v -2.640558 1.014425 -5.251597
v 3.953106 1.169675 -3.886868
v 3.953106 1.169675 -3.886868
v -2.640558 1.014425 -5.251597
v 5.826918 1.169675 -9.691867
v -0.388668 1.014425 -12.272268
v 5.826918 1.169675 -9.691867
v -2.640558 1.014425 -5.251597
v -3.652896 -1.022916 3.292074
v 2.876868 -1.022916 3.349859
v -2.788869 -1.118657 -5.253624
v 2.876868 -1.022916 3.349859
v 3.962916 -1.118657 -3.884917
v -2.788869 -1.118657 -5.253624
v -2.788869 -1.118657 -5.253624
v 3.962916 -1.118657 -3.884917
v -0.533644 -1.118657 -12.284670
v 3.962916 -1.118657 -3.884917
v 5.839368 -1.118657 -9.697605
v -0.533644 -1.118657 -12.284670
v -0.388668 1.014425 -12.272268
v -2.640558 1.014425 -5.251597
v -0.533644 -1.118657 -12.284670
v -0.533644 -1.118657 -12.284670
v -2.640558 1.014425 -5.251597
v -2.788869 -1.118657 -5.253624
v -2.640558 1.014425 -5.251597
v -3.642553 1.080595 3.285389
v -2.788869 -1.118657 -5.253624
v -2.788869 -1.118657 -5.253624
v -3.642553 1.080595 3.285389
v -3.652896 -1.022916 3.292074
v 5.839368 -1.118657 -9.697605
v 3.962916 -1.118657 -3.884917
v 5.826918 1.169675 -9.691867
v 5.826918 1.169675 -9.691867
v 3.962916 -1.118657 -3.884917
v 3.953106 1.169675 -3.886868
v 3.953106 1.169675 -3.886868
v 3.962916 -1.118657 -3.884917
v 2.868503 1.080595 3.343008
v 2.868503 1.080595 3.343008
v 3.962916 -1.118657 -3.884917
v 2.876868 -1.022916 3.349859
vt 0.128296 0.719238
vt 0.128540 0.682129
vt 0.269531 0.719238
vt 0.269531 0.719238
vt 0.128540 0.682129
vt 0.269531 0.682129
vt 0.778320 0.464844
vt 0.778320 0.425293
vt 0.894531 0.464844
vt 0.894531 0.464844
vt 0.778320 0.425293
vt 0.894531 0.425293
vt 0.778320 0.464844
vt 0.894531 0.464844
vt 0.778320 0.425293
vt 0.778320 0.425293
vt 0.894531 0.464844
vt 0.894531 0.425293
vt 0.778320 0.425293
vt 0.778320 0.432617
vt 0.894531 0.425293
vt 0.894531 0.425293
vt 0.778320 0.432617
vt 0.894531 0.433594
vt 0.894531 0.425293
vt 0.886230 0.425293
vt 0.894531 0.464844
vt 0.894531 0.464844
vt 0.886230 0.425293
vt 0.886230 0.464355
vt 0.778320 0.425293
vt 0.894531 0.425293
vt 0.778809 0.433105
vt 0.894531 0.433594
vt 0.778809 0.433105
vt 0.894531 0.425293
vt 0.894531 0.464844
vt 0.886230 0.464355
vt 0.894531 0.425293
vt 0.894531 0.425293
vt 0.886230 0.464355
vt 0.886230 0.425293
vt 0.271240 0.680908
vt 0.129517 0.679443
vt 0.296143 0.508057
vt 0.129517 0.679443
vt 0.157837 0.476562
vt 0.296143 0.508057
vt 0.296143 0.508057
vt 0.157837 0.476562
vt 0.335693 0.371094
vt 0.206055 0.308105
vt 0.335693 0.371094
vt 0.157837 0.476562
vt 0.129517 0.679443
vt 0.271240 0.680908
vt 0.161011 0.477539
vt 0.271240 0.680908
vt 0.297363 0.509033
vt 0.161011 0.477539
vt 0.161011 0.477539
vt 0.297363 0.509033
vt 0.204834 0.309082
vt 0.297363 0.509033
vt 0.335693 0.371094
vt 0.204834 0.309082
vt 0.005798 0.001953
vt 0.005798 0.146484
vt 0.066284 0.001953
vt 0.066284 0.001953
vt 0.005798 0.146484
vt 0.066284 0.146484
vt 0.005798 0.146484
vt 0.011765 0.322266
vt 0.066284 0.146484
vt 0.066284 0.146484
vt 0.011765 0.322266
vt 0.055725 0.322266
vt 0.066284 0.055176
vt 0.066284 0.174805
vt 0.001394 0.055176
vt 0.001394 0.055176
vt 0.066284 0.174805
vt 0.001394 0.174805
vt 0.001394 0.174805
vt 0.066284 0.174805
vt 0.011765 0.323730
vt 0.011765 0.323730
vt 0.066284 0.174805
vt 0.055725 0.323730
vn -0.007874 0.000000 1.000000
vn -0.007874 0.000000 1.000000
vn -0.007874 0.000000 1.000000
vn -0.007874 0.000000 1.000000
vn -0.007874 0.000000 1.000000
vn -0.007874 0.000000 1.000000
vn 0.377953 0.007874 -0.929134
vn 0.377953 0.007874 -0.929134
vn 0.377953 0.007874 -0.929134
vn 0.377953 0.007874 -0.929134
vn 0.377953 0.007874 -0.929134
vn 0.377953 0.007874 -0.929134
vn -0.377953 -0.007874 0.929134
vn -0.377953 -0.007874 0.929134
vn -0.377953 -0.007874 0.929134
vn -0.377953 -0.007874 0.929134
vn -0.377953 -0.007874 0.929134
vn -0.377953 -0.007874 0.929134
vn 0.007874 -1.000000 -0.015748
vn 0.007874 -1.000000 -0.015748
vn 0.007874 -1.000000 -0.015748
vn 0.007874 -1.000000 -0.015748
vn 0.007874 -1.000000 -0.015748
vn 0.007874 -1.000000 -0.015748
vn -0.952756 0.007874 -0.291339
vn -0.952756 0.007874 -0.291339
vn -0.952756 0.007874 -0.291339
vn -0.952756 0.007874 -0.291339
vn -0.952756 0.007874 -0.291339
vn -0.952756 0.007874 -0.291339
vn 0.007874 1.000000 -0.015748
vn 0.007874 1.000000 -0.015748
vn 0.007874 1.000000 -0.015748
vn 0.007874 1.000000 -0.015748
vn 0.007874 1.000000 -0.015748
vn 0.007874 1.000000 -0.015748
vn 0.968504 0.007874 0.259843
vn 0.968504 0.007874 0.259843
vn 0.968504 0.007874 0.259843
vn 0.968504 0.007874 0.259843
vn 0.968504 0.007874 0.259843
vn 0.968504 0.007874 0.259843
vn -0.015748 1.000000 0.000000
vn -0.015748 1.000000 0.000000
vn -0.015748 1.000000 0.000000
vn -0.015748 1.000000 0.000000
vn -0.677165 0.724409 -0.141732
vn -0.015748 1.000000 0.000000
vn -0.015748 1.000000 0.000000
vn -0.677165 0.724409 -0.141732
vn -0.023622 1.000000 -0.007874
vn -0.661417 0.724409 -0.212598
vn -0.023622 1.000000 -0.007874
vn -0.677165 0.724409 -0.141732
vn 0.000000 -1.000000 0.007874
vn 0.000000 -1.000000 0.007874
vn 0.000000 -1.000000 0.007874
vn 0.000000 -1.000000 0.007874
vn 0.000000 -1.000000 0.007874
vn 0.000000 -1.000000 0.007874
vn 0.000000 -1.000000 0.007874
vn 0.000000 -1.000000 0.007874
vn 0.000000 -1.000000 0.007874
vn 0.000000 -1.000000 0.007874
vn 0.000000 -1.000000 0.007874
vn 0.000000 -1.000000 0.007874
vn -0.661417 0.724409 -0.212598
vn -0.677165 0.724409 -0.141732
vn -0.952756 0.062992 -0.307087
vn -0.952756 0.062992 -0.307087
vn -0.677165 0.724409 -0.141732
vn -0.976378 0.055118 -0.204724
vn -0.677165 0.724409 -0.141732
vn -0.992126 0.039370 -0.110236
vn -0.976378 0.055118 -0.204724
vn -0.976378 0.055118 -0.204724
vn -0.992126 0.039370 -0.110236
vn -0.992126 0.039370 -0.110236
vn 0.952756 0.007874 0.307087
vn 0.976378 0.007874 0.228346
vn 0.952756 0.007874 0.307087
vn 0.952756 0.007874 0.307087
vn 0.976378 0.007874 0.228346
vn 0.976378 0.007874 0.228346
vn 0.976378 0.007874 0.228346
vn 0.976378 0.007874 0.228346
vn 0.992126 0.007874 0.149606
vn 0.992126 0.007874 0.149606
vn 0.976378 0.007874 0.228346
vn 0.992126 0.007874 0.149606
mtllib mtl_weapon_g36.mtl
g mtl_weapon_g36
usemtl mtl_weapon_g36
f 3/3/3 2/2/2 1/1/1
f 6/6/6 5/5/5 4/4/4
f 9/9/9 8/8/8 7/7/7
f 12/12/12 11/11/11 10/10/10
f 15/15/15 14/14/14 13/13/13
f 18/18/18 17/17/17 16/16/16
f 21/21/21 20/20/20 19/19/19
f 24/24/24 23/23/23 22/22/22
f 27/27/27 26/26/26 25/25/25
f 30/30/30 29/29/29 28/28/28
f 33/33/33 32/32/32 31/31/31
f 36/36/36 35/35/35 34/34/34
f 39/39/39 38/38/38 37/37/37
f 42/42/42 41/41/41 40/40/40
f 45/45/45 44/44/44 43/43/43
f 48/48/48 47/47/47 46/46/46
f 51/51/51 50/50/50 49/49/49
f 54/54/54 53/53/53 52/52/52
f 57/57/57 56/56/56 55/55/55
f 60/60/60 59/59/59 58/58/58
f 63/63/63 62/62/62 61/61/61
f 66/66/66 65/65/65 64/64/64
f 69/69/69 68/68/68 67/67/67
f 72/72/72 71/71/71 70/70/70
f 75/75/75 74/74/74 73/73/73
f 78/78/78 77/77/77 76/76/76
f 81/81/81 80/80/80 79/79/79
f 84/84/84 83/83/83 82/82/82
f 87/87/87 86/86/86 85/85/85
f 90/90/90 89/89/89 88/88/88
