# Generated by Wraith - Game extraction tools
# Please credit DTZxPorter for using it!

v -3.790409 -1.288080 3.618623
v -2.825077 -1.288080 -11.497783
v -3.790409 1.385695 3.618623
v -3.790409 1.385695 3.618623
v -2.825077 -1.288080 -11.497783
v -2.825077 1.385695 -11.497783
v -2.825077 -1.288080 -11.497783
v 4.642465 -1.288080 -10.501315
v -2.825077 1.385695 -11.497783
v -2.825077 1.385695 -11.497783
v 4.642465 -1.288080 -10.501315
v 4.642465 1.385695 -10.501315
v 4.642465 -1.288080 -10.501315
v 3.739416 -1.288080 3.618623
v 4.642465 1.385695 -10.501315
v 4.642465 1.385695 -10.501315
v 3.739416 -1.288080 3.618623
v 3.739416 1.385695 3.618623
v -2.825077 1.385695 -11.497783
v 4.642465 1.385695 -10.501315
v -3.790409 1.385695 3.618623
v 3.739416 1.385695 3.618623
v -3.790409 1.385695 3.618623
v 4.642465 1.385695 -10.501315
v -3.790409 -1.288080 3.618623
v 3.739416 -1.288080 3.618623
v -2.825077 -1.288080 -11.497783
v 4.642465 -1.288080 -10.501315
v -2.825077 -1.288080 -11.497783
v 3.739416 -1.288080 3.618623
v 3.739416 1.385695 3.618623
v 3.739416 -1.288080 3.618623
v -3.790409 1.385695 3.618623
v -3.790409 1.385695 3.618623
v 3.739416 -1.288080 3.618623
v -3.790409 -1.288080 3.618623
vt 0.434082 0.141602
vt 0.784180 0.141602
vt 0.434082 0.206055
vt 0.434082 0.206055
vt 0.784180 0.141602
vt 0.784180 0.206055
vt 0.995605 0.344727
vt 0.892578 0.344727
vt 0.995605 0.296387
vt 0.995605 0.296387
vt 0.892578 0.344727
vt 0.892578 0.296387
vt 0.784180 0.141602
vt 0.434082 0.141602
vt 0.784180 0.206055
vt 0.784180 0.206055
vt 0.434082 0.141602
vt 0.434082 0.206055
vt 0.979004 0.036621
vt 0.853027 0.053711
vt 0.995605 0.292480
vt 0.868164 0.292480
vt 0.995605 0.292480
vt 0.853027 0.053711
vt 0.995605 0.292480
vt 0.868164 0.292480
vt 0.979004 0.036621
vt 0.853027 0.053711
vt 0.979004 0.036621
vt 0.868164 0.292480
vt 0.426758 0.414062
vt 0.466309 0.413574
vt 0.426025 0.313477
vt 0.426025 0.313477
vt 0.466309 0.413574
vt 0.465576 0.312988
vn -1.000000 0.000000 -0.062992
vn -1.000000 0.000000 -0.062992
vn -1.000000 0.000000 -0.062992
vn -1.000000 0.000000 -0.062992
vn -1.000000 0.000000 -0.062992
vn -1.000000 0.000000 -0.062992
vn 0.133858 0.000000 -0.992126
vn 0.133858 0.000000 -0.992126
vn 0.133858 0.000000 -0.992126
vn 0.133858 0.000000 -0.992126
vn 0.133858 0.000000 -0.992126
vn 0.133858 0.000000 -0.992126
vn 1.000000 0.000000 0.062992
vn 1.000000 0.000000 0.062992
vn 1.000000 0.000000 0.062992
vn 1.000000 0.000000 0.062992
vn 1.000000 0.000000 0.062992
vn 1.000000 0.000000 0.062992
vn 0.000000 1.000000 0.000000
vn 0.000000 1.000000 0.000000
vn 0.000000 1.000000 0.000000
vn 0.000000 1.000000 0.000000
vn 0.000000 1.000000 0.000000
vn 0.000000 1.000000 0.000000
vn 0.000000 -1.000000 0.000000
vn 0.000000 -1.000000 0.000000
vn 0.000000 -1.000000 0.000000
vn 0.000000 -1.000000 0.000000
vn 0.000000 -1.000000 0.000000
vn 0.000000 -1.000000 0.000000
vn 0.000000 0.000000 1.000000
vn 0.000000 0.000000 1.000000
vn 0.000000 0.000000 1.000000
vn 0.000000 0.000000 1.000000
vn 0.000000 0.000000 1.000000
vn 0.000000 0.000000 1.000000
mtllib mtl_weapon_g3.mtl
g mtl_weapon_g3
usemtl mtl_weapon_g3
f 3/3/3 2/2/2 1/1/1
f 6/6/6 5/5/5 4/4/4
f 9/9/9 8/8/8 7/7/7
f 12/12/12 11/11/11 10/10/10
f 15/15/15 14/14/14 13/13/13
f 18/18/18 17/17/17 16/16/16
f 21/21/21 20/20/20 19/19/19
f 24/24/24 23/23/23 22/22/22
f 27/27/27 26/26/26 25/25/25
f 30/30/30 29/29/29 28/28/28
f 33/33/33 32/32/32 31/31/31
f 36/36/36 35/35/35 34/34/34
