# Generated by Wraith - Game extraction tools
# Please credit DTZxPorter for using it!

v -4.025035 -1.197209 -13.803426
v 2.430384 -1.197209 -14.511723
v -3.845290 1.248227 -13.882324
v 2.430384 -1.197209 -14.511723
v 2.430384 1.248227 -14.511723
v -3.845290 1.248227 -13.882324
v 0.761439 -0.990676 2.549205
v 0.761436 1.041697 2.549206
v 6.434993 -0.990676 0.058791
v 6.434993 -0.990676 0.058791
v 0.761436 1.041697 2.549206
v 6.434993 1.041695 0.058791
v 6.434993 1.041695 0.058791
v 0.761436 1.041697 2.549206
v 4.254784 1.248227 -5.295939
v 0.761436 1.041697 2.549206
v -2.113722 1.248227 -4.086815
v 4.254784 1.248227 -5.295939
v 4.254784 1.248227 -5.295939
v -2.113722 1.248227 -4.086815
v 3.056629 1.248227 -9.574358
v -2.113722 1.248227 -4.086815
v -3.113189 1.248227 -7.447944
v 3.056629 1.248227 -9.574358
v -3.113189 1.248227 -7.447944
v -3.845290 1.248227 -13.882324
v 3.056629 1.248227 -9.574358
v 3.056629 1.248227 -9.574358
v -3.845290 1.248227 -13.882324
v 2.430384 1.248227 -14.511723
v 2.430384 1.248227 -14.511723
v 2.430384 -1.197209 -14.511723
v 3.056629 1.248227 -9.574358
v 2.430384 -1.197209 -14.511723
v 3.056627 -1.197209 -9.574357
v 3.056629 1.248227 -9.574358
v 3.056629 1.248227 -9.574358
v 3.056627 -1.197209 -9.574357
v 4.254784 1.248227 -5.295939
v 3.056627 -1.197209 -9.574357
v 4.254784 -1.197209 -5.295939
v 4.254784 1.248227 -5.295939
v 4.254784 1.248227 -5.295939
v 4.254784 -1.197209 -5.295939
v 6.434993 1.041695 0.058791
v 6.434993 1.041695 0.058791
v 4.254784 -1.197209 -5.295939
v 6.434993 -0.990676 0.058791
v 0.761439 -0.990676 2.549205
v -2.293466 -1.197209 -4.007916
v 0.761436 1.041697 2.549206
v 0.761436 1.041697 2.549206
v -2.293466 -1.197209 -4.007916
v -2.113722 1.248227 -4.086815
v -2.293466 -1.197209 -4.007916
v -3.292937 -1.197209 -7.369043
v -2.113722 1.248227 -4.086815
v -2.113722 1.248227 -4.086815
v -3.292937 -1.197209 -7.369043
v -3.113189 1.248227 -7.447944
v -3.113189 1.248227 -7.447944
v -3.292937 -1.197209 -7.369043
v -3.845290 1.248227 -13.882324
v -3.845290 1.248227 -13.882324
v -3.292937 -1.197209 -7.369043
v -4.025035 -1.197209 -13.803426
v -4.025035 -1.197209 -13.803426
v -3.292937 -1.197209 -7.369043
v 2.430384 -1.197209 -14.511723
v 2.430384 -1.197209 -14.511723
v -3.292937 -1.197209 -7.369043
v 3.056627 -1.197209 -9.574357
v 3.056627 -1.197209 -9.574357
v -3.292937 -1.197209 -7.369043
v 4.254784 -1.197209 -5.295939
v -3.292937 -1.197209 -7.369043
v -2.293466 -1.197209 -4.007916
v 4.254784 -1.197209 -5.295939
v -2.293466 -1.197209 -4.007916
v 0.761439 -0.990676 2.549205
v 4.254784 -1.197209 -5.295939
v 4.254784 -1.197209 -5.295939
v 0.761439 -0.990676 2.549205
v 6.434993 -0.990676 0.058791
vt 0.863770 0.490234
vt 0.863770 0.416016
vt 0.893066 0.488281
vt 0.863770 0.416016
vt 0.893066 0.416016
vt 0.893066 0.488281
vt 0.670898 0.628662
vt 0.702637 0.628662
vt 0.670898 0.548096
vt 0.670898 0.548096
vt 0.702637 0.628662
vt 0.702637 0.548096
vt 0.825195 0.536377
vt 0.937988 0.536377
vt 0.818848 0.422852
vt 0.937988 0.536377
vt 0.940430 0.394531
vt 0.818848 0.422852
vt 0.818848 0.422852
vt 0.940430 0.394531
vt 0.806641 0.336914
vt 0.940430 0.394531
vt 0.932129 0.326172
vt 0.806641 0.336914
vt 0.932129 0.326172
vt 0.894531 0.208008
vt 0.806641 0.336914
vt 0.806641 0.336914
vt 0.894531 0.208008
vt 0.777344 0.247070
vt 0.993652 0.206543
vt 0.947754 0.206543
vt 0.993652 0.295410
vt 0.947754 0.206543
vt 0.947754 0.295410
vt 0.993652 0.295410
vt 0.993652 0.295410
vt 0.947754 0.295410
vt 0.993652 0.377441
vt 0.947754 0.295410
vt 0.947754 0.377441
vt 0.993652 0.377441
vt 0.993652 0.377441
vt 0.947754 0.377441
vt 0.985352 0.484863
vt 0.985352 0.484863
vt 0.947754 0.377441
vt 0.956055 0.484863
vt 0.956055 0.536377
vt 0.947754 0.394531
vt 0.985352 0.536377
vt 0.985352 0.536377
vt 0.947754 0.394531
vt 0.993652 0.394531
vt 0.947754 0.394531
vt 0.947754 0.326172
vt 0.993652 0.394531
vt 0.993652 0.394531
vt 0.947754 0.326172
vt 0.993652 0.326172
vt 0.993652 0.326172
vt 0.947754 0.326172
vt 0.993652 0.204590
vt 0.993652 0.204590
vt 0.947754 0.326172
vt 0.947754 0.204590
vt 0.897949 0.208008
vt 0.935547 0.326172
vt 0.777344 0.247070
vt 0.777344 0.247070
vt 0.935547 0.326172
vt 0.806641 0.336914
vt 0.806641 0.336914
vt 0.935547 0.326172
vt 0.818848 0.422852
vt 0.935547 0.326172
vt 0.944336 0.394531
vt 0.818848 0.422852
vt 0.944336 0.394531
vt 0.937988 0.536377
vt 0.818848 0.422852
vt 0.818848 0.422852
vt 0.937988 0.536377
vt 0.825195 0.536377
vn -0.102362 -0.015748 -0.992126
vn -0.102362 -0.015748 -0.992126
vn -0.102362 -0.015748 -0.992126
vn -0.102362 -0.015748 -0.992126
vn -0.102362 -0.015748 -0.992126
vn -0.102362 -0.015748 -0.992126
vn 0.401575 0.000000 0.913386
vn 0.401575 0.000000 0.913386
vn 0.401575 0.000000 0.913386
vn 0.401575 0.000000 0.913386
vn 0.401575 0.000000 0.913386
vn 0.401575 0.000000 0.913386
vn 0.007874 1.000000 0.031496
vn 0.007874 1.000000 0.031496
vn 0.007874 1.000000 0.015748
vn 0.007874 1.000000 0.031496
vn 0.007874 1.000000 0.015748
vn 0.007874 1.000000 0.015748
vn 0.007874 1.000000 0.015748
vn 0.007874 1.000000 0.015748
vn 0.000000 1.000000 0.000000
vn 0.007874 1.000000 0.015748
vn 0.000000 1.000000 0.000000
vn 0.000000 1.000000 0.000000
vn 0.000000 1.000000 0.000000
vn 0.000000 1.000000 0.000000
vn 0.000000 1.000000 0.000000
vn 0.000000 1.000000 0.000000
vn 0.000000 1.000000 0.000000
vn 0.000000 1.000000 0.000000
vn 0.992126 0.000000 -0.125984
vn 0.992126 0.000000 -0.125984
vn 0.976378 0.000000 -0.196850
vn 0.992126 0.000000 -0.125984
vn 0.976378 0.000000 -0.196850
vn 0.976378 0.000000 -0.196850
vn 0.976378 0.000000 -0.196850
vn 0.976378 0.000000 -0.196850
vn 0.944882 0.000000 -0.322835
vn 0.976378 0.000000 -0.196850
vn 0.944882 0.000000 -0.322835
vn 0.944882 0.000000 -0.322835
vn 0.944882 0.000000 -0.322835
vn 0.944882 0.000000 -0.322835
vn 0.929134 0.000000 -0.377953
vn 0.929134 0.000000 -0.377953
vn 0.944882 0.000000 -0.322835
vn 0.929134 0.000000 -0.377953
vn -0.913386 0.047244 0.409449
vn -0.937008 0.062992 0.346457
vn -0.913386 0.047244 0.409449
vn -0.913386 0.047244 0.409449
vn -0.937008 0.062992 0.346457
vn 0.000000 1.000000 0.000000
vn -0.937008 0.062992 0.346457
vn -0.976378 0.078740 0.196850
vn 0.000000 1.000000 0.000000
vn 0.000000 1.000000 0.000000
vn -0.976378 0.078740 0.196850
vn 0.000000 1.000000 0.000000
vn 0.000000 1.000000 0.000000
vn -0.976378 0.078740 0.196850
vn 0.000000 1.000000 0.000000
vn 0.000000 1.000000 0.000000
vn -0.976378 0.078740 0.196850
vn -0.992126 0.078740 0.110236
vn 0.000000 -1.000000 0.015748
vn 0.000000 -1.000000 0.015748
vn 0.000000 -1.000000 0.015748
vn 0.000000 -1.000000 0.015748
vn 0.000000 -1.000000 0.015748
vn 0.000000 -1.000000 0.015748
vn 0.000000 -1.000000 0.015748
vn 0.000000 -1.000000 0.015748
vn 0.000000 -1.000000 0.015748
vn 0.000000 -1.000000 0.015748
vn 0.000000 -1.000000 0.015748
vn 0.000000 -1.000000 0.015748
vn 0.000000 -1.000000 0.015748
vn 0.000000 -1.000000 0.015748
vn 0.000000 -1.000000 0.015748
vn 0.000000 -1.000000 0.015748
vn 0.000000 -1.000000 0.015748
vn 0.000000 -1.000000 0.015748
mtllib mtl_weapon_m16.mtl
g mtl_weapon_m16
usemtl mtl_weapon_m16
f 3/3/3 2/2/2 1/1/1
f 6/6/6 5/5/5 4/4/4
f 9/9/9 8/8/8 7/7/7
f 12/12/12 11/11/11 10/10/10
f 15/15/15 14/14/14 13/13/13
f 18/18/18 17/17/17 16/16/16
f 21/21/21 20/20/20 19/19/19
f 24/24/24 23/23/23 22/22/22
f 27/27/27 26/26/26 25/25/25
f 30/30/30 29/29/29 28/28/28
f 33/33/33 32/32/32 31/31/31
f 36/36/36 35/35/35 34/34/34
f 39/39/39 38/38/38 37/37/37
f 42/42/42 41/41/41 40/40/40
f 45/45/45 44/44/44 43/43/43
f 48/48/48 47/47/47 46/46/46
f 51/51/51 50/50/50 49/49/49
f 54/54/54 53/53/53 52/52/52
f 57/57/57 56/56/56 55/55/55
f 60/60/60 59/59/59 58/58/58
f 63/63/63 62/62/62 61/61/61
f 66/66/66 65/65/65 64/64/64
f 69/69/69 68/68/68 67/67/67
f 72/72/72 71/71/71 70/70/70
f 75/75/75 74/74/74 73/73/73
f 78/78/78 77/77/77 76/76/76
f 81/81/81 80/80/80 79/79/79
f 84/84/84 83/83/83 82/82/82
