# Generated by Wraith - Game extraction tools
# Please credit DTZxPorter for using it!

v 0.000000 -0.103535 0.000000
v 0.199243 0.000000 0.000000
v 0.000000 0.097818 0.000000
v 0.000000 0.097818 0.000000
v 0.000000 0.097818 0.000000
v 0.000000 0.097818 0.000000
vt 0.000000 0.000000
vt 0.333252 1.000000
vt 0.666504 0.000000
vt 0.666504 0.000000
vt 0.666504 0.000000
vt 0.666504 0.000000
vn 0.000000 0.000000 -1.000000
vn 0.000000 0.000000 -1.000000
vn 0.000000 0.000000 -1.000000
vn 0.000000 0.000000 -1.000000
vn 0.000000 0.000000 -1.000000
vn 0.000000 0.000000 -1.000000
mtllib mtl_weapon_acog_2_alpha.mtl
g mtl_weapon_acog_2_alpha
usemtl mtl_weapon_acog_2_alpha
f 3/3/3 2/2/2 1/1/1
f 6/6/6 5/5/5 4/4/4
