# Generated by Wraith - Game extraction tools
# Please credit DTZxPorter for using it!

v 6.143994 -1.660230 -21.082714
v 6.675342 -1.660233 -21.643131
v 6.143994 1.704691 -21.082714
v 6.143994 1.704691 -21.082714
v 6.675342 -1.660233 -21.643131
v 6.675344 1.704691 -21.643133
v 11.548719 0.805691 -15.108741
v 11.548722 -0.761230 -15.108744
v 11.102852 0.805691 -14.694786
v 11.102852 0.805691 -14.694786
v 11.548722 -0.761230 -15.108744
v 11.102852 -0.761230 -14.694786
v 10.559910 1.523220 -16.444580
v 11.548719 0.805691 -15.108741
v 10.097798 1.523218 -16.002794
v 10.097798 1.523218 -16.002794
v 11.548719 0.805691 -15.108741
v 11.102852 0.805691 -14.694786
v 10.559910 -1.478760 -16.444580
v 10.097801 -1.478763 -16.002794
v 11.548722 -0.761230 -15.108744
v 11.548722 -0.761230 -15.108744
v 10.097801 -1.478763 -16.002794
v 11.102852 -0.761230 -14.694786
v 6.675342 -1.660233 -21.643131
v 6.143994 -1.660230 -21.082714
v 10.559910 -1.478760 -16.444580
v 10.559910 -1.478760 -16.444580
v 6.143994 -1.660230 -21.082714
v 10.097801 -1.478763 -16.002794
v 6.675344 1.704691 -21.643133
v 10.559910 1.523220 -16.444580
v 6.143994 1.704691 -21.082714
v 6.143994 1.704691 -21.082714
v 10.559910 1.523220 -16.444580
v 10.097798 1.523218 -16.002794
v 6.544328 -1.434201 -20.904945
v 6.544328 1.478656 -20.904947
v 3.059463 -1.434201 -16.988550
v 6.544328 1.478656 -20.904947
v 3.059463 1.478656 -16.988550
v 3.059463 -1.434201 -16.988550
v 3.059463 -1.434201 -16.988550
v 3.059463 1.478656 -16.988550
v -0.464400 -1.434198 -11.137177
v 3.059463 1.478656 -16.988550
v -0.464400 1.478659 -11.137183
v -0.464400 -1.434198 -11.137177
v -0.464400 1.478659 -11.137183
v -2.431628 1.478659 -4.727623
v -0.464400 -1.434198 -11.137177
v -0.464400 -1.434198 -11.137177
v -2.431628 1.478659 -4.727623
v -2.431628 -1.434198 -4.727623
v -2.431628 -1.434198 -4.727623
v -2.431628 1.478659 -4.727623
v -3.201144 -1.434198 0.357868
v -2.431628 1.478659 -4.727623
v -3.201144 1.478659 0.357868
v -3.201144 -1.434198 0.357868
v -3.201144 -1.434198 0.357868
v -3.201144 1.478659 0.357868
v -3.201144 -1.434198 3.748829
v -3.201144 1.478659 3.748829
v -3.201144 -1.434198 3.748829
v -3.201144 1.478659 0.357868
v 6.544328 1.478656 -20.904947
v 9.817554 1.323658 -16.727051
v 3.059463 1.478656 -16.988550
v 9.817554 1.323658 -16.727051
v 6.867950 1.323655 -13.464384
v 3.059463 1.478656 -16.988550
v 3.059463 1.478656 -16.988550
v 6.867950 1.323655 -13.464384
v -0.464400 1.478659 -11.137183
v 6.867950 1.323655 -13.464384
v 3.816484 1.323655 -8.910500
v -0.464400 1.478659 -11.137183
v -0.464400 1.478659 -11.137183
v 3.816484 1.323655 -8.910500
v -2.431628 1.478659 -4.727623
v 3.816484 1.323655 -8.910500
v 2.187753 1.323655 -3.701798
v -2.431628 1.478659 -4.727623
v 2.187753 1.323655 -3.701798
v 1.556337 1.323655 0.540680
v -2.431628 1.478659 -4.727623
v -2.431628 1.478659 -4.727623
v 1.556337 1.323655 0.540680
v -3.201144 1.478659 0.357868
v -3.201144 1.478659 0.357868
v 1.556337 1.323655 0.540680
v -3.201144 1.478659 3.748829
v 1.556337 1.323655 0.540680
v 1.556337 1.323655 3.748829
v -3.201144 1.478659 3.748829
v 9.817554 1.323658 -16.727051
v 10.987953 0.544370 -15.236640
v 6.867950 1.323655 -13.464384
v 10.987953 0.544370 -15.236640
v 7.977236 0.544370 -12.411718
v 6.867950 1.323655 -13.464384
v 6.867950 1.323655 -13.464384
v 7.977236 0.544370 -12.411718
v 3.816484 1.323655 -8.910500
v 7.977236 0.544370 -12.411718
v 5.136876 0.544370 -8.174829
v 3.816484 1.323655 -8.910500
v 3.816484 1.323655 -8.910500
v 5.136876 0.544370 -8.174829
v 2.187753 1.323655 -3.701798
v 5.136876 0.544370 -8.174829
v 3.512345 0.544370 -3.323564
v 2.187753 1.323655 -3.701798
v 2.187753 1.323655 -3.701798
v 3.512345 0.544370 -3.323564
v 1.556337 1.323655 0.540680
v 3.512345 0.544370 -3.323564
v 3.052867 0.544370 0.595287
v 1.556337 1.323655 0.540680
v 1.556337 1.323655 0.540680
v 3.052867 0.544370 0.595287
v 1.556337 1.323655 3.748829
v 1.556337 1.323655 3.748829
v 3.052867 0.544370 0.595287
v 3.052867 0.750443 3.782749
v 6.544328 -1.434201 -20.904945
v 3.059463 -1.434201 -16.988550
v 9.817554 -1.279197 -16.727051
v 9.817554 -1.279197 -16.727051
v 3.059463 -1.434201 -16.988550
v 6.867950 -1.279197 -13.464384
v 3.059463 -1.434201 -16.988550
v -0.464400 -1.434198 -11.137177
v 6.867950 -1.279197 -13.464384
v 6.867950 -1.279197 -13.464384
v -0.464400 -1.434198 -11.137177
v 3.816484 -1.279197 -8.910500
v -0.464400 -1.434198 -11.137177
v -2.431628 -1.434198 -4.727623
v 3.816484 -1.279197 -8.910500
v 3.816484 -1.279197 -8.910500
v -2.431628 -1.434198 -4.727623
v 2.187753 -1.279197 -3.701798
v 2.187753 -1.279197 -3.701798
v -2.431628 -1.434198 -4.727623
v 1.556334 -1.279197 0.540680
v -2.431628 -1.434198 -4.727623
v -3.201144 -1.434198 0.357868
v 1.556334 -1.279197 0.540680
v -3.201144 -1.434198 0.357868
v -3.201144 -1.434198 3.748829
v 1.556334 -1.279197 0.540680
v 1.556334 -1.279197 0.540680
v -3.201144 -1.434198 3.748829
v 1.556334 -1.279197 3.748829
v 9.817554 -1.279197 -16.727051
v 6.867950 -1.279197 -13.464384
v 10.987950 -0.499913 -15.236640
v 10.987950 -0.499913 -15.236640
v 6.867950 -1.279197 -13.464384
v 7.977236 -0.499913 -12.411718
v 6.867950 -1.279197 -13.464384
v 3.816484 -1.279197 -8.910500
v 7.977236 -0.499913 -12.411718
v 7.977236 -0.499913 -12.411718
v 3.816484 -1.279197 -8.910500
v 5.136876 -0.499913 -8.174829
v 3.816484 -1.279197 -8.910500
v 2.187753 -1.279197 -3.701798
v 5.136876 -0.499913 -8.174829
v 5.136876 -0.499913 -8.174829
v 2.187753 -1.279197 -3.701798
v 3.512345 -0.499913 -3.323564
v 3.512345 -0.499913 -3.323564
v 2.187753 -1.279197 -3.701798
v 3.052867 -0.499913 0.595287
v 2.187753 -1.279197 -3.701798
v 1.556334 -1.279197 0.540680
v 3.052867 -0.499913 0.595287
v 1.556334 -1.279197 0.540680
v 1.556334 -1.279197 3.748829
v 3.052867 -0.499913 0.595287
v 3.052867 -0.499913 0.595287
v 1.556334 -1.279197 3.748829
v 3.052867 -0.705985 3.782749
v 10.987953 0.544370 -15.236640
v 10.987950 -0.499913 -15.236640
v 7.977236 0.544370 -12.411718
v 10.987950 -0.499913 -15.236640
v 7.977236 -0.499913 -12.411718
v 7.977236 0.544370 -12.411718
v 7.977236 -0.499913 -12.411718
v 5.136876 -0.499913 -8.174829
v 7.977236 0.544370 -12.411718
v 7.977236 0.544370 -12.411718
v 5.136876 -0.499913 -8.174829
v 5.136876 0.544370 -8.174829
v 5.136876 -0.499913 -8.174829
v 3.512345 -0.499913 -3.323564
v 5.136876 0.544370 -8.174829
v 5.136876 0.544370 -8.174829
v 3.512345 -0.499913 -3.323564
v 3.512345 0.544370 -3.323564
v 3.512345 0.544370 -3.323564
v 3.512345 -0.499913 -3.323564
v 3.052867 0.544370 0.595287
v 3.512345 -0.499913 -3.323564
v 3.052867 -0.499913 0.595287
v 3.052867 0.544370 0.595287
v 3.052867 -0.499913 0.595287
v 3.052867 -0.705985 3.782749
v 3.052867 0.544370 0.595287
v 3.052867 0.750443 3.782749
v 3.052867 0.544370 0.595287
v 3.052867 -0.705985 3.782749
v -3.201144 1.478659 3.748829
v 1.556337 1.323655 3.748829
v -3.201144 -1.434198 3.748829
v -3.201144 -1.434198 3.748829
v 1.556337 1.323655 3.748829
v 1.556334 -1.279197 3.748829
v 1.556334 -1.279197 3.748829
v 1.556337 1.323655 3.748829
v 3.052867 -0.705985 3.782749
v 3.052867 -0.705985 3.782749
v 1.556337 1.323655 3.748829
v 3.052867 0.750443 3.782749
v 6.675342 -1.660233 -21.643131
v 10.559910 -1.478760 -16.444580
v 6.675344 1.704691 -21.643133
v 6.675344 1.704691 -21.643133
v 10.559910 -1.478760 -16.444580
v 10.559910 1.523220 -16.444580
v 10.559910 1.523220 -16.444580
v 10.559910 -1.478760 -16.444580
v 11.548719 0.805691 -15.108741
v 11.548719 0.805691 -15.108741
v 10.559910 -1.478760 -16.444580
v 11.548722 -0.761230 -15.108744
v 6.143994 1.704691 -21.082714
v 10.097798 1.523218 -16.002794
v 6.143994 -1.660230 -21.082714
v 6.143994 -1.660230 -21.082714
v 10.097798 1.523218 -16.002794
v 10.097801 -1.478763 -16.002794
v 10.097801 -1.478763 -16.002794
v 10.097798 1.523218 -16.002794
v 11.102852 -0.761230 -14.694786
v 11.102852 -0.761230 -14.694786
v 10.097798 1.523218 -16.002794
v 11.102852 0.805691 -14.694786
vt 0.251709 0.108887
vt 0.242432 0.108887
vt 0.251709 0.084473
vt 0.251709 0.084473
vt 0.242432 0.108887
vt 0.242432 0.084473
vt 0.242432 0.144531
vt 0.242432 0.164062
vt 0.251709 0.144531
vt 0.251709 0.144531
vt 0.242432 0.164062
vt 0.251709 0.164062
vt 0.242432 0.133301
vt 0.242432 0.144531
vt 0.251709 0.133301
vt 0.251709 0.133301
vt 0.242432 0.144531
vt 0.251709 0.144531
vt 0.242432 0.153320
vt 0.251709 0.153320
vt 0.242432 0.164062
vt 0.242432 0.164062
vt 0.251709 0.153320
vt 0.251709 0.164062
vt 0.242432 0.108887
vt 0.251709 0.108887
vt 0.242432 0.153320
vt 0.242432 0.153320
vt 0.251709 0.108887
vt 0.251709 0.153320
vt 0.242432 0.084473
vt 0.242432 0.133301
vt 0.251709 0.084473
vt 0.251709 0.084473
vt 0.242432 0.133301
vt 0.251709 0.133301
vt 0.309082 0.087402
vt 0.259521 0.087402
vt 0.309082 0.140625
vt 0.259521 0.087402
vt 0.259521 0.140625
vt 0.309082 0.140625
vt 0.309082 0.140625
vt 0.259521 0.140625
vt 0.309082 0.211426
vt 0.259521 0.140625
vt 0.259521 0.211426
vt 0.309082 0.211426
vt 0.259521 0.211426
vt 0.259521 0.306641
vt 0.309082 0.211426
vt 0.309082 0.211426
vt 0.259521 0.306641
vt 0.309082 0.306641
vt 0.309082 0.306641
vt 0.259521 0.306641
vt 0.309082 0.366699
vt 0.259521 0.306641
vt 0.259521 0.366699
vt 0.309082 0.366699
vt 0.309082 0.366699
vt 0.259521 0.366699
vt 0.309082 0.408203
vt 0.259521 0.408203
vt 0.309082 0.408203
vt 0.259521 0.366699
vt 0.081299 0.018555
vt 0.024918 0.083984
vt 0.140747 0.079102
vt 0.024918 0.083984
vt 0.076050 0.137695
vt 0.140747 0.079102
vt 0.140747 0.079102
vt 0.076050 0.137695
vt 0.198975 0.166016
vt 0.076050 0.137695
vt 0.122192 0.207520
vt 0.198975 0.166016
vt 0.198975 0.166016
vt 0.122192 0.207520
vt 0.236206 0.281250
vt 0.122192 0.207520
vt 0.159668 0.298340
vt 0.236206 0.281250
vt 0.159668 0.298340
vt 0.171997 0.368652
vt 0.236206 0.281250
vt 0.236206 0.281250
vt 0.171997 0.368652
vt 0.248779 0.364746
vt 0.248779 0.364746
vt 0.171997 0.368652
vt 0.249512 0.429688
vt 0.171997 0.368652
vt 0.176025 0.429688
vt 0.249512 0.429688
vt 0.024918 0.083984
vt 0.005413 0.106445
vt 0.076050 0.137695
vt 0.005413 0.106445
vt 0.057587 0.153320
vt 0.076050 0.137695
vt 0.076050 0.137695
vt 0.057587 0.153320
vt 0.122192 0.207520
vt 0.057587 0.153320
vt 0.100098 0.217773
vt 0.122192 0.207520
vt 0.122192 0.207520
vt 0.100098 0.217773
vt 0.159668 0.298340
vt 0.100098 0.217773
vt 0.135010 0.302734
vt 0.159668 0.298340
vt 0.159668 0.298340
vt 0.135010 0.302734
vt 0.171997 0.368652
vt 0.135010 0.302734
vt 0.143555 0.367188
vt 0.171997 0.368652
vt 0.171997 0.368652
vt 0.143555 0.367188
vt 0.176025 0.429688
vt 0.176025 0.429688
vt 0.143555 0.367188
vt 0.151855 0.427734
vt 0.081299 0.018555
vt 0.140747 0.079102
vt 0.024918 0.083984
vt 0.024918 0.083984
vt 0.140747 0.079102
vt 0.076050 0.137695
vt 0.140747 0.079102
vt 0.198975 0.166016
vt 0.076050 0.137695
vt 0.076050 0.137695
vt 0.198975 0.166016
vt 0.122192 0.207520
vt 0.198975 0.166016
vt 0.236206 0.281250
vt 0.122192 0.207520
vt 0.122192 0.207520
vt 0.236206 0.281250
vt 0.159668 0.298340
vt 0.159668 0.298340
vt 0.236206 0.281250
vt 0.171997 0.368652
vt 0.236206 0.281250
vt 0.248779 0.364746
vt 0.171997 0.368652
vt 0.248779 0.364746
vt 0.249512 0.429688
vt 0.171997 0.368652
vt 0.171997 0.368652
vt 0.249512 0.429688
vt 0.176025 0.429688
vt 0.024918 0.083984
vt 0.076050 0.137695
vt 0.005413 0.106445
vt 0.005413 0.106445
vt 0.076050 0.137695
vt 0.057587 0.153320
vt 0.076050 0.137695
vt 0.122192 0.207520
vt 0.057587 0.153320
vt 0.057587 0.153320
vt 0.122192 0.207520
vt 0.100098 0.217773
vt 0.122192 0.207520
vt 0.159668 0.298340
vt 0.100098 0.217773
vt 0.100098 0.217773
vt 0.159668 0.298340
vt 0.135010 0.302734
vt 0.135010 0.302734
vt 0.159668 0.298340
vt 0.143555 0.367188
vt 0.159668 0.298340
vt 0.171997 0.368652
vt 0.143555 0.367188
vt 0.171997 0.368652
vt 0.176025 0.429688
vt 0.143555 0.367188
vt 0.143555 0.367188
vt 0.176025 0.429688
vt 0.151855 0.427734
vt 0.295166 0.087402
vt 0.271484 0.087402
vt 0.295166 0.107422
vt 0.271484 0.087402
vt 0.271484 0.107422
vt 0.295166 0.107422
vt 0.271484 0.107422
vt 0.271484 0.171875
vt 0.295166 0.107422
vt 0.295166 0.107422
vt 0.271484 0.171875
vt 0.295166 0.171875
vt 0.271484 0.171875
vt 0.271484 0.257324
vt 0.295166 0.171875
vt 0.295166 0.171875
vt 0.271484 0.257324
vt 0.295166 0.257324
vt 0.295166 0.257324
vt 0.271484 0.257324
vt 0.295166 0.321777
vt 0.271484 0.257324
vt 0.271484 0.321777
vt 0.295166 0.321777
vt 0.271484 0.321777
vt 0.271484 0.381836
vt 0.295166 0.321777
vt 0.295166 0.381836
vt 0.295166 0.321777
vt 0.271484 0.381836
vt 0.251953 0.432617
vt 0.189819 0.432617
vt 0.251953 0.472168
vt 0.251953 0.472168
vt 0.189819 0.432617
vt 0.189819 0.472168
vt 0.189819 0.472168
vt 0.189819 0.432617
vt 0.168579 0.461426
vt 0.168579 0.461426
vt 0.189819 0.432617
vt 0.168579 0.442871
vt 0.207397 0.080566
vt 0.215698 0.168457
vt 0.251953 0.080566
vt 0.251953 0.080566
vt 0.215698 0.168457
vt 0.244385 0.168457
vt 0.244385 0.168457
vt 0.215698 0.168457
vt 0.242554 0.189453
vt 0.242554 0.189453
vt 0.215698 0.168457
vt 0.217651 0.189453
vt 0.251953 0.080566
vt 0.244385 0.168457
vt 0.207397 0.080566
vt 0.207397 0.080566
vt 0.244385 0.168457
vt 0.215698 0.168457
vt 0.215698 0.168457
vt 0.244385 0.168457
vt 0.217651 0.189453
vt 0.217651 0.189453
vt 0.244385 0.168457
vt 0.242554 0.189453
vn -0.724409 0.000000 -0.685039
vn -0.724409 0.000000 -0.685039
vn -0.724409 0.000000 -0.685039
vn -0.724409 0.000000 -0.685039
vn -0.724409 0.000000 -0.685039
vn -0.724409 0.000000 -0.685039
vn 0.677165 0.000000 0.732283
vn 0.677165 0.000000 0.732283
vn 0.677165 0.000000 0.732283
vn 0.677165 0.000000 0.732283
vn 0.677165 0.000000 0.732283
vn 0.677165 0.000000 0.732283
vn 0.275591 0.913386 0.291339
vn 0.275591 0.913386 0.291339
vn 0.275591 0.913386 0.291339
vn 0.275591 0.913386 0.291339
vn 0.275591 0.913386 0.291339
vn 0.275591 0.913386 0.291339
vn 0.275591 -0.913386 0.291339
vn 0.275591 -0.913386 0.291339
vn 0.275591 -0.913386 0.291339
vn 0.275591 -0.913386 0.291339
vn 0.275591 -0.913386 0.291339
vn 0.275591 -0.913386 0.291339
vn 0.023622 -1.000000 0.023622
vn 0.023622 -1.000000 0.023622
vn 0.023622 -1.000000 0.023622
vn 0.023622 -1.000000 0.023622
vn 0.023622 -1.000000 0.023622
vn 0.023622 -1.000000 0.023622
vn 0.023622 1.000000 0.023622
vn 0.023622 1.000000 0.023622
vn 0.023622 1.000000 0.023622
vn 0.023622 1.000000 0.023622
vn 0.023622 1.000000 0.023622
vn 0.023622 1.000000 0.023622
vn -0.748031 0.000000 -0.661417
vn -0.748031 0.000000 -0.661417
vn -0.803150 0.000000 -0.590551
vn -0.748031 0.000000 -0.661417
vn -0.803150 0.000000 -0.590551
vn -0.803150 0.000000 -0.590551
vn -0.803150 0.000000 -0.590551
vn -0.803150 0.000000 -0.590551
vn -0.913386 0.000000 -0.409449
vn -0.803150 0.000000 -0.590551
vn -0.913386 0.000000 -0.409449
vn -0.913386 0.000000 -0.409449
vn -0.913386 0.000000 -0.409449
vn -0.976378 0.000000 -0.220472
vn -0.913386 0.000000 -0.409449
vn -0.913386 0.000000 -0.409449
vn -0.976378 0.000000 -0.220472
vn -0.976378 0.000000 -0.220472
vn -0.976378 0.000000 -0.220472
vn -0.976378 0.000000 -0.220472
vn -1.000000 0.000000 -0.078740
vn -0.976378 0.000000 -0.220472
vn -1.000000 0.000000 -0.078740
vn -1.000000 0.000000 -0.078740
vn -1.000000 0.000000 -0.078740
vn -1.000000 0.000000 -0.078740
vn -1.000000 0.000000 0.000000
vn -1.000000 0.000000 0.000000
vn -1.000000 0.000000 0.000000
vn -1.000000 0.000000 -0.078740
vn 0.023622 1.000000 0.023622
vn 0.023622 1.000000 0.023622
vn 0.023622 1.000000 0.015748
vn 0.023622 1.000000 0.023622
vn 0.023622 1.000000 0.015748
vn 0.023622 1.000000 0.015748
vn 0.023622 1.000000 0.015748
vn 0.023622 1.000000 0.015748
vn 0.031496 1.000000 0.015748
vn 0.023622 1.000000 0.015748
vn 0.031496 1.000000 0.015748
vn 0.031496 1.000000 0.015748
vn 0.031496 1.000000 0.015748
vn 0.031496 1.000000 0.015748
vn 0.031496 1.000000 0.007874
vn 0.031496 1.000000 0.015748
vn 0.031496 1.000000 0.007874
vn 0.031496 1.000000 0.007874
vn 0.031496 1.000000 0.007874
vn 0.031496 1.000000 0.000000
vn 0.031496 1.000000 0.007874
vn 0.031496 1.000000 0.007874
vn 0.031496 1.000000 0.000000
vn 0.031496 1.000000 0.000000
vn 0.031496 1.000000 0.000000
vn 0.031496 1.000000 0.000000
vn 0.031496 1.000000 0.000000
vn 0.031496 1.000000 0.000000
vn 0.031496 1.000000 0.000000
vn 0.031496 1.000000 0.000000
vn 0.299213 0.905512 0.291339
vn 0.299213 0.905512 0.291339
vn 0.338583 0.897638 0.275591
vn 0.299213 0.905512 0.291339
vn 0.338583 0.897638 0.275591
vn 0.338583 0.897638 0.275591
vn 0.338583 0.897638 0.275591
vn 0.338583 0.897638 0.275591
vn 0.417323 0.881890 0.204724
vn 0.338583 0.897638 0.275591
vn 0.417323 0.881890 0.204724
vn 0.417323 0.881890 0.204724
vn 0.417323 0.881890 0.204724
vn 0.417323 0.881890 0.204724
vn 0.464567 0.881890 0.102362
vn 0.417323 0.881890 0.204724
vn 0.464567 0.881890 0.102362
vn 0.464567 0.881890 0.102362
vn 0.464567 0.881890 0.102362
vn 0.464567 0.881890 0.102362
vn 0.440945 0.897638 0.015748
vn 0.464567 0.881890 0.102362
vn 0.440945 0.897638 0.015748
vn 0.440945 0.897638 0.015748
vn 0.440945 0.897638 0.015748
vn 0.440945 0.897638 0.015748
vn 0.409449 0.913386 -0.031496
vn 0.409449 0.913386 -0.031496
vn 0.440945 0.897638 0.015748
vn 0.409449 0.913386 -0.031496
vn 0.023622 -1.000000 0.023622
vn 0.023622 -1.000000 0.015748
vn 0.023622 -1.000000 0.023622
vn 0.023622 -1.000000 0.023622
vn 0.023622 -1.000000 0.015748
vn 0.023622 -1.000000 0.015748
vn 0.023622 -1.000000 0.015748
vn 0.031496 -1.000000 0.015748
vn 0.023622 -1.000000 0.015748
vn 0.023622 -1.000000 0.015748
vn 0.031496 -1.000000 0.015748
vn 0.031496 -1.000000 0.015748
vn 0.031496 -1.000000 0.015748
vn 0.031496 -1.000000 0.007874
vn 0.031496 -1.000000 0.015748
vn 0.031496 -1.000000 0.015748
vn 0.031496 -1.000000 0.007874
vn 0.031496 -1.000000 0.007874
vn 0.031496 -1.000000 0.007874
vn 0.031496 -1.000000 0.007874
vn 0.031496 -1.000000 0.000000
vn 0.031496 -1.000000 0.007874
vn 0.031496 -1.000000 0.000000
vn 0.031496 -1.000000 0.000000
vn 0.031496 -1.000000 0.000000
vn 0.031496 -1.000000 0.000000
vn 0.031496 -1.000000 0.000000
vn 0.031496 -1.000000 0.000000
vn 0.031496 -1.000000 0.000000
vn 0.031496 -1.000000 0.000000
vn 0.299213 -0.905512 0.291339
vn 0.338583 -0.897638 0.275591
vn 0.299213 -0.905512 0.291339
vn 0.299213 -0.905512 0.291339
vn 0.338583 -0.897638 0.275591
vn 0.338583 -0.897638 0.275591
vn 0.338583 -0.897638 0.275591
vn 0.417323 -0.881890 0.204724
vn 0.338583 -0.897638 0.275591
vn 0.338583 -0.897638 0.275591
vn 0.417323 -0.881890 0.204724
vn 0.417323 -0.881890 0.204724
vn 0.417323 -0.881890 0.204724
vn 0.464567 -0.881890 0.102362
vn 0.417323 -0.881890 0.204724
vn 0.417323 -0.881890 0.204724
vn 0.464567 -0.881890 0.102362
vn 0.464567 -0.881890 0.102362
vn 0.464567 -0.881890 0.102362
vn 0.464567 -0.881890 0.102362
vn 0.440945 -0.897638 0.015748
vn 0.464567 -0.881890 0.102362
vn 0.440945 -0.897638 0.015748
vn 0.440945 -0.897638 0.015748
vn 0.440945 -0.897638 0.015748
vn 0.409449 -0.913386 -0.031496
vn 0.440945 -0.897638 0.015748
vn 0.440945 -0.897638 0.015748
vn 0.409449 -0.913386 -0.031496
vn 0.409449 -0.913386 -0.031496
vn 0.685039 0.000000 0.732283
vn 0.685039 0.000000 0.732283
vn 0.763780 0.000000 0.645669
vn 0.685039 0.000000 0.732283
vn 0.763780 0.000000 0.645669
vn 0.763780 0.000000 0.645669
vn 0.763780 0.000000 0.645669
vn 0.897638 0.000000 0.440945
vn 0.763780 0.000000 0.645669
vn 0.763780 0.000000 0.645669
vn 0.897638 0.000000 0.440945
vn 0.897638 0.000000 0.440945
vn 0.897638 0.000000 0.440945
vn 0.976378 0.000000 0.220472
vn 0.897638 0.000000 0.440945
vn 0.897638 0.000000 0.440945
vn 0.976378 0.000000 0.220472
vn 0.976378 0.000000 0.220472
vn 0.976378 0.000000 0.220472
vn 0.976378 0.000000 0.220472
vn 1.000000 0.000000 0.055118
vn 0.976378 0.000000 0.220472
vn 1.000000 0.000000 0.055118
vn 1.000000 0.000000 0.055118
vn 1.000000 0.000000 0.055118
vn 1.000000 0.000000 0.000000
vn 1.000000 0.000000 0.055118
vn 1.000000 0.000000 0.000000
vn 1.000000 0.000000 0.055118
vn 1.000000 0.000000 0.000000
vn -0.007874 0.000000 1.000000
vn -0.007874 0.000000 1.000000
vn -0.007874 0.000000 1.000000
vn -0.007874 0.000000 1.000000
vn -0.007874 0.000000 1.000000
vn -0.007874 0.000000 1.000000
vn -0.007874 0.000000 1.000000
vn -0.007874 0.000000 1.000000
vn -0.007874 0.000000 1.000000
vn -0.007874 0.000000 1.000000
vn -0.007874 0.000000 1.000000
vn -0.007874 0.000000 1.000000
vn 0.803150 0.000000 -0.598425
vn 0.803150 0.000000 -0.598425
vn 0.803150 0.000000 -0.598425
vn 0.803150 0.000000 -0.598425
vn 0.803150 0.000000 -0.598425
vn 0.803150 0.000000 -0.598425
vn 0.803150 0.000000 -0.598425
vn 0.803150 0.000000 -0.598425
vn 0.803150 0.000000 -0.598425
vn 0.803150 0.000000 -0.598425
vn 0.803150 0.000000 -0.598425
vn 0.803150 0.000000 -0.598425
vn -0.787402 0.000000 0.614173
vn -0.787402 0.000000 0.614173
vn -0.787402 0.000000 0.614173
vn -0.787402 0.000000 0.614173
vn -0.787402 0.000000 0.614173
vn -0.787402 0.000000 0.614173
vn -0.787402 0.000000 0.614173
vn -0.787402 0.000000 0.614173
vn -0.787402 0.000000 0.614173
vn -0.787402 0.000000 0.614173
vn -0.787402 0.000000 0.614173
vn -0.787402 0.000000 0.614173
mtllib mtl_weapon_ak74u_misc_nocamo.mtl
g mtl_weapon_ak74u_misc_nocamo
usemtl mtl_weapon_ak74u_misc_nocamo
f 3/3/3 2/2/2 1/1/1
f 6/6/6 5/5/5 4/4/4
f 9/9/9 8/8/8 7/7/7
f 12/12/12 11/11/11 10/10/10
f 15/15/15 14/14/14 13/13/13
f 18/18/18 17/17/17 16/16/16
f 21/21/21 20/20/20 19/19/19
f 24/24/24 23/23/23 22/22/22
f 27/27/27 26/26/26 25/25/25
f 30/30/30 29/29/29 28/28/28
f 33/33/33 32/32/32 31/31/31
f 36/36/36 35/35/35 34/34/34
f 39/39/39 38/38/38 37/37/37
f 42/42/42 41/41/41 40/40/40
f 45/45/45 44/44/44 43/43/43
f 48/48/48 47/47/47 46/46/46
f 51/51/51 50/50/50 49/49/49
f 54/54/54 53/53/53 52/52/52
f 57/57/57 56/56/56 55/55/55
f 60/60/60 59/59/59 58/58/58
f 63/63/63 62/62/62 61/61/61
f 66/66/66 65/65/65 64/64/64
f 69/69/69 68/68/68 67/67/67
f 72/72/72 71/71/71 70/70/70
f 75/75/75 74/74/74 73/73/73
f 78/78/78 77/77/77 76/76/76
f 81/81/81 80/80/80 79/79/79
f 84/84/84 83/83/83 82/82/82
f 87/87/87 86/86/86 85/85/85
f 90/90/90 89/89/89 88/88/88
f 93/93/93 92/92/92 91/91/91
f 96/96/96 95/95/95 94/94/94
f 99/99/99 98/98/98 97/97/97
f 102/102/102 101/101/101 100/100/100
f 105/105/105 104/104/104 103/103/103
f 108/108/108 107/107/107 106/106/106
f 111/111/111 110/110/110 109/109/109
f 114/114/114 113/113/113 112/112/112
f 117/117/117 116/116/116 115/115/115
f 120/120/120 119/119/119 118/118/118
f 123/123/123 122/122/122 121/121/121
f 126/126/126 125/125/125 124/124/124
f 129/129/129 128/128/128 127/127/127
f 132/132/132 131/131/131 130/130/130
f 135/135/135 134/134/134 133/133/133
f 138/138/138 137/137/137 136/136/136
f 141/141/141 140/140/140 139/139/139
f 144/144/144 143/143/143 142/142/142
f 147/147/147 146/146/146 145/145/145
f 150/150/150 149/149/149 148/148/148
f 153/153/153 152/152/152 151/151/151
f 156/156/156 155/155/155 154/154/154
f 159/159/159 158/158/158 157/157/157
f 162/162/162 161/161/161 160/160/160
f 165/165/165 164/164/164 163/163/163
f 168/168/168 167/167/167 166/166/166
f 171/171/171 170/170/170 169/169/169
f 174/174/174 173/173/173 172/172/172
f 177/177/177 176/176/176 175/175/175
f 180/180/180 179/179/179 178/178/178
f 183/183/183 182/182/182 181/181/181
f 186/186/186 185/185/185 184/184/184
f 189/189/189 188/188/188 187/187/187
f 192/192/192 191/191/191 190/190/190
f 195/195/195 194/194/194 193/193/193
f 198/198/198 197/197/197 196/196/196
f 201/201/201 200/200/200 199/199/199
f 204/204/204 203/203/203 202/202/202
f 207/207/207 206/206/206 205/205/205
f 210/210/210 209/209/209 208/208/208
f 213/213/213 212/212/212 211/211/211
f 216/216/216 215/215/215 214/214/214
f 219/219/219 218/218/218 217/217/217
f 222/222/222 221/221/221 220/220/220
f 225/225/225 224/224/224 223/223/223
f 228/228/228 227/227/227 226/226/226
f 231/231/231 230/230/230 229/229/229
f 234/234/234 233/233/233 232/232/232
f 237/237/237 236/236/236 235/235/235
f 240/240/240 239/239/239 238/238/238
f 243/243/243 242/242/242 241/241/241
f 246/246/246 245/245/245 244/244/244
f 249/249/249 248/248/248 247/247/247
f 252/252/252 251/251/251 250/250/250
